<?xml version="1.0" encoding="UTF-8" standalone="no"?>
<svg
   xmlns:dc="http://purl.org/dc/elements/1.1/"
   xmlns:cc="http://creativecommons.org/ns#"
   xmlns:rdf="http://www.w3.org/1999/02/22-rdf-syntax-ns#"
   xmlns:svg="http://www.w3.org/2000/svg"
   xmlns="http://www.w3.org/2000/svg"
   xmlns:sodipodi="http://sodipodi.sourceforge.net/DTD/sodipodi-0.dtd"
   xmlns:inkscape="http://www.inkscape.org/namespaces/inkscape"
   width="4.8611102in"
   height="2in"
   viewBox="0 0 123.4722 50.800007"
   version="1.1"
   id="svg8"
   inkscape:version="1.0.2-2 (e86c870879, 2021-01-15)"
   sodipodi:docname="Logo.svg">
  <defs
     id="defs2">
    <rect
       x="48.815624"
       y="32.411457"
       width="71.305206"
       height="11.773958"
       id="rect1333" />
    <rect
       x="48.418751"
       y="31.353125"
       width="71.172913"
       height="15.08125"
       id="rect1323" />
    <inkscape:path-effect
       effect="spiro"
       id="path-effect1275"
       is_visible="true"
       lpeversion="1" />
    <inkscape:path-effect
       effect="spiro"
       id="path-effect1271"
       is_visible="true"
       lpeversion="1" />
  </defs>
  <sodipodi:namedview
     id="base"
     pagecolor="#4d6cf5"
     bordercolor="#666666"
     borderopacity="1.0"
     inkscape:pageopacity="1"
     inkscape:pageshadow="2"
     inkscape:zoom="2"
     inkscape:cx="305.87572"
     inkscape:cy="111.64423"
     inkscape:document-units="mm"
     inkscape:current-layer="layer4"
     inkscape:document-rotation="0"
     showgrid="true"
     units="in"
     inkscape:window-width="1920"
     inkscape:window-height="1017"
     inkscape:window-x="-8"
     inkscape:window-y="-8"
     inkscape:window-maximized="1">
    <inkscape:grid
       type="xygrid"
       id="grid869" />
  </sodipodi:namedview>
  <metadata
     id="metadata5">
    <rdf:RDF>
      <cc:Work
         rdf:about="">
        <dc:format>image/svg+xml</dc:format>
        <dc:type
           rdf:resource="http://purl.org/dc/dcmitype/StillImage" />
        <dc:title></dc:title>
      </cc:Work>
    </rdf:RDF>
  </metadata>
  <g
     inkscape:label="Layer 1"
     inkscape:groupmode="layer"
     id="layer1"
     style="display:inline"
     sodipodi:insensitive="true">
    <circle
       style="fill:#000000;stroke-width:0.264583"
       id="path35"
       cx="26.978048"
       cy="25.56064"
       r="20.930431" />
  </g>
  <g
     inkscape:groupmode="layer"
     id="layer3"
     inkscape:label="Layer 2">
    <circle
       style="fill:#afffff;fill-opacity:1;stroke-width:0.264583"
       id="path44"
       cx="27.025297"
       cy="25.513393"
       r="19.276785" />
  </g>
  <g
     inkscape:groupmode="layer"
     id="layer4"
     inkscape:label="Layer 3"
     style="mix-blend-mode:normal">
    <g
       id="path1054"
       style="opacity:1"
       transform="translate(-1.4174107,-0.28348216)" />
    <g
       id="path1074"
       style="opacity:1">
      <g
         id="path1087"
         style="opacity:1"
         transform="matrix(0.92615894,0,0,1.0277409,2.5704691,-1.1793356)">
        <path
           style="color:#000000;font-style:normal;font-variant:normal;font-weight:normal;font-stretch:normal;font-size:medium;line-height:normal;font-family:sans-serif;font-variant-ligatures:normal;font-variant-position:normal;font-variant-caps:normal;font-variant-numeric:normal;font-variant-alternates:normal;font-variant-east-asian:normal;font-feature-settings:normal;font-variation-settings:normal;text-indent:0;text-align:start;text-decoration:none;text-decoration-line:none;text-decoration-style:solid;text-decoration-color:#000000;letter-spacing:normal;word-spacing:normal;text-transform:none;writing-mode:lr-tb;direction:ltr;text-orientation:mixed;dominant-baseline:auto;baseline-shift:baseline;text-anchor:start;white-space:normal;shape-padding:0;shape-margin:0;inline-size:0;clip-rule:nonzero;display:inline;overflow:visible;visibility:visible;isolation:auto;mix-blend-mode:normal;color-interpolation:sRGB;color-interpolation-filters:linearRGB;solid-color:#000000;solid-opacity:1;vector-effect:none;fill:#999999;fill-opacity:1;fill-rule:nonzero;stroke:none;stroke-width:0.001;stroke-linecap:butt;stroke-linejoin:miter;stroke-miterlimit:4;stroke-dasharray:none;stroke-dashoffset:0;stroke-opacity:1;color-rendering:auto;image-rendering:auto;shape-rendering:auto;text-rendering:auto;enable-background:accumulate;stop-color:#000000;stop-opacity:1"
           d="m 35.03537,42.563885 0.05253,0.451893"
           id="path1093" />
        <rect
           style="fill:#999999;fill-opacity:1;stroke:#999999;stroke-width:0.00140832;stroke-miterlimit:4;stroke-dasharray:none"
           id="rect1107"
           width="0.37047222"
           height="0.3885161"
           x="-29.503601"
           y="-45.401482"
           transform="matrix(-0.99745262,0.07133214,-0.12439223,-0.99223312,0,0)" />
        <g
           id="rect1112"
           style="opacity:1" />
        <path
           id="rect1123-7"
           style="fill:#999999;fill-opacity:1;stroke:#999999;stroke-width:0.00068975;stroke-miterlimit:4;stroke-dasharray:none"
           d="m 31.598924,16.7773 h -2.99971 v 2.961383 h 3.285388 z m 3.385451,26.037153 v 0.01563 0.05469 h 0.04687 v -0.07031 z m 0.01613,0.01597 h 0.01506 v 0.03771 H 35.0005 Z m -0.01027,-0.0648 c -0.573004,0.255767 -1.156844,0.472672 -1.787109,0.648437 l 0.07422,0.261719 c 0.644403,-0.179708 1.240967,-0.403721 1.824218,-0.664062 z m 0.06055,-0.216301 -0.03125,0.004 0.05273,0.464235 0.03125,-0.004 z m -0.08575,-0.04924 c -0.308593,0.351912 -0.675006,0.572841 -1.001701,0.769665 l 0.06116,0.07982 C 34.35122,43.152725 34.728695,42.924713 35.049392,42.559 Z m -0.97078,0.809834 c 0.326711,-0.196834 0.699058,-0.421393 1.013702,-0.780205 M 21.627534,19.738698 18.703239,43.397185 c 0.761158,0.27668 1.509535,0.517793 2.243022,0.715508 0.763243,0.205736 1.511823,0.369928 2.246366,0.493764 0.734545,0.123838 1.454983,0.207308 2.162115,0.252916 0.707131,0.04561 1.40132,0.05309 2.082325,0.02414 0.681005,-0.02895 1.34916,-0.09426 2.005326,-0.194088 0.656165,-0.09983 1.300178,-0.234202 1.932793,-0.401246 0.632611,-0.167043 1.253812,-0.366765 1.86416,-0.597344 0.271401,-0.102532 0.532899,-0.233397 0.800122,-0.347948 l 1.009918,-0.783891 0.0039,0.0035 -3.168684,-22.823813 z m 0.285633,-2.961339 h 2.99971 v 2.961383 h -3.285388 z" />
      </g>
    </g>
    <path
       id="rect1149"
       style="fill:#afffff;fill-opacity:1;stroke:#999999;stroke-width:0.000888629;stroke-miterlimit:4;stroke-dasharray:none"
       d="m 30.030264,33.535995 h -4.762611 l 0.661458,-7.276153 3.505841,4e-6 z"
       sodipodi:nodetypes="ccccc" />
    <rect
       style="fill:#999999;fill-opacity:1;stroke:#999999;stroke-width:0.001;stroke-miterlimit:4;stroke-dasharray:none"
       id="rect1156"
       width="6.8791666"
       height="0.66145831"
       x="24.209373"
       y="29.567188" />
    <path
       id="rect1156-5"
       style="fill:#999999;fill-opacity:1;stroke:#999999;stroke-width:0.00113074;stroke-miterlimit:4;stroke-dasharray:none"
       transform="rotate(90)"
       d="m 25.267773,-28.045771 h 8.797265 l -0.02339,0.778258 -8.773879,-0.11693 z"
       sodipodi:nodetypes="ccccc" />
    <path
       id="path44-0"
       style="fill:#ffff00;fill-opacity:1;stroke-width:0.264583"
       d="M 19.89547,7.5965825 A 19.276785,19.276785 0 0 0 8.4589612,20.288314 8.559307,8.559307 0 0 0 13.778531,22.142464 8.559307,8.559307 0 0 0 22.337698,13.583297 8.559307,8.559307 0 0 0 19.89547,7.5965825 Z" />
    <path
       style="fill:#000000;fill-opacity:1;stroke:#000000;stroke-width:0.665001;stroke-miterlimit:4;stroke-dasharray:none"
       id="path1285"
       d="m 49.397017,11.748176 c 0.504754,0.1453 0.940562,0.410604 1.353511,0.727276 0.326511,0.279697 0.662413,0.56946 0.915373,0.921053 0.134292,0.186653 0.16288,0.261864 0.264115,0.462403 0.227941,0.478973 0.277336,1.002836 0.309026,1.524454 -0.0042,0.592532 -0.06054,1.187962 -0.147439,1.774263 -0.0717,0.343785 -0.183322,0.677799 -0.301305,1.008076 -0.183327,0.43337 -0.390004,0.859396 -0.610312,1.275547 -0.202845,0.390044 -0.438404,0.761713 -0.648592,1.147549 -0.190516,0.278308 -0.195146,0.602792 -0.194318,0.926791 0.04359,0.373631 0.329719,0.626425 0.564391,0.894621 0.219612,0.268905 0.345607,0.582067 0.428511,0.915225 0.07553,0.318027 0.06821,0.641231 0.04382,0.964184 -0.02556,0.425335 -0.07891,0.849315 -0.188349,1.261491 -0.07627,0.273354 -0.20253,0.507581 -0.383751,0.723497 -0.158758,0.226378 -0.308052,0.45938 -0.488426,0.669452 -0.135351,0.22765 -0.347647,0.400679 -0.48917,0.623387 -0.03406,0.05359 -0.05911,0.112398 -0.08866,0.168595 -0.10359,0.278704 -0.171826,0.566521 -0.282022,0.842955 0,0 1.24134,-0.578043 1.24134,-0.578043 v 0 c 0.09404,-0.274873 0.158705,-0.561406 0.292804,-0.820801 0.179604,-0.270725 0.395766,-0.513377 0.58929,-0.77416 0.172398,-0.219877 0.327835,-0.451581 0.494459,-0.675681 0.16941,-0.233493 0.280649,-0.491475 0.349642,-0.772271 0.09214,-0.422005 0.144356,-0.851615 0.179136,-1.281936 0.02418,-0.336604 0.02315,-0.676348 -0.06299,-1.005322 -0.09667,-0.350191 -0.228492,-0.685803 -0.461854,-0.969973 -0.213879,-0.23954 -0.483238,-0.469572 -0.5133,-0.808629 0.0037,-0.311889 0.04503,-0.600559 0.224177,-0.865665 0.20833,-0.381287 0.427847,-0.756416 0.629052,-1.141608 0.218932,-0.426635 0.443124,-0.853933 0.618394,-1.300429 0.117063,-0.335558 0.227537,-0.674944 0.277517,-1.028149 0.06928,-0.594962 0.127534,-1.194353 0.12842,-1.793575 -0.03104,-0.54184 -0.09077,-1.081399 -0.331192,-1.576896 -0.0996,-0.188186 -0.155469,-0.309071 -0.283032,-0.48405 -0.260713,-0.357613 -0.61294,-0.645136 -0.935546,-0.943007 -0.159882,-0.129669 -0.317783,-0.265754 -0.49171,-0.377193 -0.265813,-0.170317 -0.564253,-0.279612 -0.853,-0.402538 0,0 -1.148017,0.769107 -1.148017,0.769107 z" />
    <path
       style="fill:#000000;fill-opacity:1;stroke:#000000;stroke-width:0.665001;stroke-miterlimit:4;stroke-dasharray:none"
       id="path1287"
       d="m 57.688469,11.541449 c -0.336466,0.738781 -0.788099,1.40997 -1.265688,2.062967 -0.472614,0.639677 -0.978717,1.250731 -1.503235,1.847927 -0.267803,0.28985 -0.557855,0.557709 -0.842502,0.83066 -0.259795,0.254136 -0.51589,0.512287 -0.76249,0.78066 -0.140874,0.202763 -0.340026,0.358211 -0.483528,0.558405 -0.0073,0.01021 -0.162375,0.261756 -0.169839,0.273845 -0.06696,0.173881 -0.204171,0.315268 -0.274018,0.486919 -0.03752,0.0922 -0.05902,0.218357 -0.07904,0.314134 -0.09643,0.43801 -0.03231,0.68582 0.15308,1.085227 0.147249,0.290971 0.302877,0.576534 0.383032,0.894298 0.03181,0.232693 0.08205,0.462173 0.111157,0.695337 0.02669,0.245377 0.02742,0.492503 0.03215,0.738992 0.0026,0.296984 0.0011,0.59398 -2.64e-4,0.890966 0.01111,0.159063 -0.0245,0.324437 0.01169,0.481761 0.01349,0.05865 0.09332,0.281455 0.108588,0.325188 0.142018,0.372397 0.284951,0.744415 0.411535,1.122402 0.130334,0.454503 0.487223,0.770688 0.817121,1.088457 0.155739,0.148028 0.308554,0.298339 0.455171,0.455347 0,0 1.170096,-0.713468 1.170096,-0.713468 v 0 c -0.152689,-0.155975 -0.311209,-0.305316 -0.472636,-0.452292 -0.320376,-0.299994 -0.642033,-0.608034 -0.767048,-1.041834 -0.131853,-0.374963 -0.286375,-0.741634 -0.413692,-1.118232 -0.02429,-0.08227 -0.06743,-0.215677 -0.08252,-0.306524 -0.02551,-0.153525 0.0013,-0.31219 -0.0099,-0.466545 -7.94e-4,-0.297193 -7.94e-4,-0.594384 -0.0016,-0.891577 6.3e-5,-0.252383 -0.0042,-0.505473 -0.03511,-0.75628 -0.03268,-0.237857 -0.07919,-0.47367 -0.122584,-0.709656 -0.09039,-0.322044 -0.253426,-0.612143 -0.404842,-0.9088 -0.17055,-0.376148 -0.203105,-0.602123 -0.10432,-1.007012 0.0784,-0.275992 0.228566,-0.514391 0.372541,-0.761026 0.189196,-0.291764 0.42654,-0.543008 0.654315,-0.804866 0.251529,-0.265749 0.513231,-0.520409 0.773695,-0.777132 0.279482,-0.268771 0.560083,-0.537163 0.813048,-0.831666 0.512689,-0.596244 1.00443,-1.208474 1.466668,-1.845063 0.485256,-0.67554 0.946398,-1.367367 1.315558,-2.114696 0,0 -1.254495,0.573177 -1.254495,0.573177 z" />
    <path
       style="fill:#000000;fill-opacity:1;stroke:#000000;stroke-width:0.665001;stroke-miterlimit:4;stroke-dasharray:none"
       id="path1289"
       d="m 57.127319,27.361914 c 0.354986,-0.30893 0.706877,-0.622059 1.032849,-0.961884 0.391102,-0.384799 0.737571,-0.80321 1.023226,-1.271674 0.258942,-0.436604 0.514561,-0.878064 0.731038,-1.337678 0.181922,-0.419549 0.391075,-0.826776 0.587269,-1.239909 0.173771,-0.422177 0.355272,-0.840995 0.521584,-1.266241 0.246076,-0.560206 0.49295,-1.119998 0.731837,-1.683361 0.203031,-0.548796 0.417725,-1.093329 0.61671,-1.643739 0.169341,-0.486873 0.336402,-0.975039 0.487037,-1.468015 0.163025,-0.506269 0.316243,-1.016151 0.44183,-1.533066 0.145365,-0.469988 0.262647,-0.948138 0.393081,-1.422392 0.08791,-0.265916 0.209164,-0.518986 0.335632,-0.767969 0.06243,-0.163385 0.14401,-0.315993 0.239384,-0.462195 0.104696,-0.151461 0.169006,-0.327523 0.271196,-0.481002 0.03639,-0.07622 0.08235,-0.14348 0.158157,-0.184799 0.02196,-0.01197 0.09109,-0.04097 0.06957,-0.0282 -1.083757,0.64312 -1.530934,0.801509 -1.05475,0.628111 0.162067,-0.0042 0.226491,0.186 0.262503,0.314624 0.06038,0.374601 0.05636,0.756725 0.0633,1.135148 -0.0011,0.751193 -0.123362,1.49423 -0.199567,2.239942 -0.06917,0.627928 -0.135679,1.256664 -0.160814,1.888089 -0.007,0.465975 -0.06516,0.928828 -0.09495,1.393497 -0.04869,0.393228 -0.0951,0.787196 -0.08544,1.183748 0.07192,0.634006 0.114721,1.270183 0.141134,1.907541 0.04542,0.612629 0.06487,1.227355 0.155541,1.83553 0.05979,0.366936 0.188917,0.716223 0.264871,1.079213 0.02207,0.405696 0.226865,0.678067 0.445074,1.004234 0.191117,0.325545 0.443376,0.613851 0.739482,0.847562 0,0 1.165542,-0.738172 1.165542,-0.738172 v 0 c -0.299106,-0.206458 -0.543925,-0.486591 -0.73203,-0.796304 -0.206127,-0.313965 -0.377397,-0.585057 -0.405599,-0.96839 -0.08157,-0.357408 -0.21508,-0.700866 -0.275106,-1.063649 -0.09258,-0.601741 -0.130392,-1.208056 -0.162657,-1.815692 -0.03048,-0.638119 -0.07911,-1.274883 -0.120672,-1.912295 0.0044,-0.394651 0.05136,-0.785601 0.09413,-1.177609 0.02769,-0.462778 0.06966,-0.924902 0.07982,-1.388555 0.03077,-0.626755 0.07585,-1.252528 0.152067,-1.875627 0.07108,-0.752214 0.184941,-1.501321 0.203597,-2.257635 0.0026,-0.394563 0.02013,-0.793872 -0.05311,-1.183692 -0.06192,-0.204049 -0.162668,-0.384995 -0.362683,-0.480955 -0.616955,-0.0426 -1.250516,0.451608 -1.55461,0.976665 -0.08638,0.163035 -0.176072,0.323483 -0.273486,0.480225 -0.08718,0.152662 -0.161684,0.310828 -0.232085,0.471936 -0.123314,0.252673 -0.228735,0.51602 -0.307763,0.785788 -0.12133,0.474631 -0.239588,0.950095 -0.381624,1.419172 -0.131313,0.513171 -0.281887,1.021227 -0.444387,1.525367 -0.157572,0.490134 -0.319164,0.979205 -0.492543,1.464006 -0.198207,0.545292 -0.395023,1.091469 -0.60748,1.631244 -0.242658,0.566207 -0.496388,1.127441 -0.742633,1.692008 -0.171019,0.423459 -0.352737,0.842369 -0.532979,1.261962 -0.194358,0.41269 -0.396589,0.821616 -0.584317,1.237366 -0.222509,0.449726 -0.462182,0.892656 -0.727061,1.318773 -0.298712,0.453374 -0.648682,0.863394 -1.034741,1.245286 -0.341278,0.337216 -0.698352,0.657767 -1.0679,0.963808 0,0 1.283517,-0.520142 1.283517,-0.520142 z" />
    <path
       style="fill:#000000;fill-opacity:1;stroke:#000000;stroke-width:0.665001;stroke-miterlimit:4;stroke-dasharray:none"
       id="path1291"
       d="m 59.490249,22.671275 c 0.336728,-0.0034 0.671799,-0.04127 1.007311,-0.06659 0.282062,-0.0072 0.520071,-0.130896 0.762781,-0.26045 0.375465,-0.180881 0.753081,-0.359503 1.13774,-0.520297 0.155191,-0.05515 0.376447,-0.147519 0.470723,0.03835 0.08477,0.184656 0.204875,0.354327 0.338468,0.506999 0.1816,0.125295 0.08972,0.06569 0.275498,0.179031 0,0 1.154906,-0.74597 1.154906,-0.74597 v 0 c -0.171326,-0.104722 -0.08948,-0.05504 -0.245457,-0.149187 -0.128077,-0.143299 -0.24235,-0.3031 -0.317529,-0.480756 -0.140793,-0.262101 -0.325848,-0.284397 -0.600567,-0.195725 -0.388041,0.154056 -0.761574,0.341613 -1.144103,0.508459 -0.236059,0.121726 -0.452943,0.273986 -0.724834,0.301699 -0.330444,0.02605 -0.661006,0.07189 -0.992569,0.06899 0,0 -1.122368,0.815447 -1.122368,0.815447 z" />
    <path
       style="fill:#000000;fill-opacity:1;stroke:#000000;stroke-width:0.665001;stroke-miterlimit:4;stroke-dasharray:none"
       id="path1295"
       d="m 74.143901,14.001396 c -0.02328,-0.273776 0.0081,-0.550999 -0.01312,-0.824538 -0.01923,-0.24819 -0.05129,-0.33028 -0.112662,-0.573352 -0.142084,-0.40704 -0.337489,-0.828647 -0.6761,-1.111961 -0.06219,-0.05204 -0.132189,-0.09397 -0.198284,-0.140954 -0.257355,-0.134184 -0.526026,-0.275738 -0.815091,-0.329135 -0.198348,-0.03664 -0.269489,-0.02201 -0.470184,-0.01325 -0.881623,0.130444 -1.762677,0.580324 -2.33077,1.273479 -0.277106,0.440991 -0.319122,0.962495 -0.298254,1.470336 0.01183,0.09011 0.01537,0.181706 0.03549,0.270339 0.125664,0.553841 0.537702,1.181282 0.803479,1.687457 0.401397,0.676586 0.693409,1.40371 0.935233,2.149887 0.174892,0.569362 0.214741,1.16433 0.233286,1.755836 0.02077,0.407643 -0.0016,0.811794 -0.04882,1.216398 -0.03975,0.487151 -0.02127,0.976278 -0.05359,1.463771 -0.03673,0.419455 -0.191162,0.805636 -0.35695,1.18724 -0.24311,0.539816 -0.465473,1.089273 -0.721561,1.623194 -0.144711,0.307798 -0.225589,0.648024 -0.442008,0.917062 -0.396845,0.293984 -0.3215,0.234655 1.03345,-0.606676 0.02829,-0.01757 -0.06143,0.02979 -0.09467,0.03195 -0.16075,0.01044 -0.323353,-0.08313 -0.463262,-0.146343 -0.465489,-0.214626 -0.819697,-0.580055 -1.174826,-0.937547 -0.262769,-0.22683 -0.413142,-0.489373 -0.53112,-0.808956 -0.119525,-0.285027 -0.185219,-0.587955 -0.271711,-0.883641 -0.104555,-0.350352 -0.123455,-0.717477 -0.139142,-1.080478 0,0 -1.219075,0.629535 -1.219075,0.629535 v 0 c 0.02447,0.372336 0.04478,0.750047 0.150638,1.109916 0.0864,0.299027 0.155014,0.604412 0.276791,0.892054 0.122692,0.330953 0.294769,0.626828 0.571751,0.855084 0.372758,0.356481 0.731848,0.734871 1.193676,0.979314 0.753901,0.376322 1.179277,0.425112 1.937123,-0.587754 0.17091,-0.292893 0.266409,-0.61692 0.404304,-0.92542 0.242269,-0.544236 0.479703,-1.090604 0.730356,-1.631105 0.168156,-0.39284 0.307988,-0.795246 0.32857,-1.226772 0.02146,-0.488628 0.01709,-0.978927 0.07215,-1.465654 0.03713,-0.408307 0.05014,-0.817079 0.0258,-1.226868 -0.0304,-0.6007 -0.08102,-1.205628 -0.266946,-1.781478 -0.262028,-0.74456 -0.545251,-1.485301 -0.952974,-2.164557 -0.323355,-0.606589 -0.729321,-1.214935 -0.787606,-1.916212 -0.0117,-0.485771 0.04211,-0.982425 0.348726,-1.379551 0.375341,-0.385676 0.997977,-0.704111 -0.675661,0.270773 -0.06417,0.03738 0.133025,-0.06671 0.202639,-0.09256 0.152913,-0.05678 0.290901,-0.07976 0.449681,-0.113263 0.158146,-0.01719 0.280416,-0.0402 0.43947,-0.02034 0.280212,0.035 0.540469,0.173182 0.793644,0.286904 0.06179,0.04064 0.127431,0.07595 0.185375,0.121911 0.326168,0.258693 0.520488,0.654098 0.647872,1.039721 0.02127,0.0931 0.048,0.185126 0.06379,0.279312 0.06124,0.365224 0.01244,0.738943 0.01498,1.106717 0,0 1.236112,-0.629831 1.236112,-0.629831 z" />
    <path
       style="fill:#000000;fill-opacity:1;stroke:#000000;stroke-width:0.665001;stroke-miterlimit:4;stroke-dasharray:none"
       id="path1297"
       d="m 75.22111,12.27382 c 0.398436,-0.162634 0.829921,-0.201469 1.254476,-0.238175 0.23748,-0.0026 0.488085,-0.06001 0.722482,0.0053 0.106683,0.02972 0.177181,0.07943 0.272084,0.134713 0.336315,0.247365 0.576043,0.594138 0.878261,0.87815 0.322016,0.285545 0.68171,0.533526 1.08331,0.690907 0.345715,0.08572 0.74073,0.06453 1.074703,-0.06696 0.0836,-0.03292 0.161224,-0.07936 0.241837,-0.119048 0.901407,-0.505382 1.709097,-0.885446 2.320155,-1.699036 0.257982,-0.359954 0.401754,-0.774646 0.537861,-1.191218 0,0 -1.230715,0.578526 -1.230715,0.578526 v 0 c -0.134982,0.406483 -0.28979,0.805662 -0.555974,1.147289 -0.159266,0.192345 -0.320844,0.366234 -0.514998,0.52452 -0.363577,0.296412 -1.293093,0.853345 0.499949,-0.210686 -0.159242,0.09469 -0.265515,0.173192 -0.445109,0.223001 -0.07458,0.02068 -0.152818,0.0247 -0.22946,0.03545 -0.187208,0.02627 -0.373755,0.05348 -0.561017,0.01084 -0.395441,-0.131025 -0.752374,-0.362723 -1.063236,-0.638272 -0.310441,-0.287749 -0.546283,-0.645833 -0.881242,-0.908459 -0.08677,-0.05616 -0.200155,-0.135913 -0.297707,-0.173589 -0.242244,-0.09356 -0.505767,-0.03957 -0.756409,-0.03059 -0.422101,0.03267 -0.853192,0.05936 -1.257705,0.192808 0,0 -1.091546,0.854517 -1.091546,0.854517 z" />
    <path
       style="fill:#000000;fill-opacity:1;stroke:#000000;stroke-width:0.665001;stroke-miterlimit:4;stroke-dasharray:none"
       id="path1299"
       d="m 79.638926,14.727171 c -0.03826,1.051371 -0.119843,2.10288 -0.257326,3.146079 -0.02614,0.165157 -0.05276,0.330244 -0.07846,0.495471 -0.06407,0.411738 -0.102418,0.584835 -0.107308,1.010017 -0.0062,0.541528 0.07843,1.070803 0.162206,1.603511 0.07406,0.516982 0.250507,1.057267 0.123066,1.582459 -0.01839,0.07578 -0.05149,0.147205 -0.07724,0.220808 -0.253122,0.518511 -0.621118,0.967779 -0.96788,1.42511 -0.283885,0.378919 -0.551829,0.76849 -0.781609,1.182571 -0.134056,0.300638 -0.282419,0.608059 -0.50115,0.857325 -0.411977,0.222773 -1.081278,0.691916 0.692931,-0.412428 0.06125,-0.03813 -0.131278,0.05997 -0.197808,0.0879 -0.183676,0.07711 -0.219215,0.08602 -0.406191,0.150588 -0.395229,0.13342 -0.804807,0.208244 -1.218792,0.249668 -0.368142,0.04288 -0.725967,-0.02272 -1.060871,-0.174451 -0.160835,-0.08197 -0.298471,-0.195266 -0.433131,-0.313372 0,0 -1.165495,0.724278 -1.165495,0.724278 v 0 c 0.142365,0.12627 0.288187,0.24738 0.452864,0.344453 0.34146,0.178406 0.719407,0.262599 1.105926,0.233215 0.421209,-0.02985 0.836909,-0.102542 1.241235,-0.226783 0.79095,-0.247467 1.108794,-0.492398 1.976998,-0.989522 0.05643,-0.03231 0.112543,-0.06588 0.164031,-0.105592 0.04304,-0.0332 0.07889,-0.07481 0.118335,-0.112211 0.190527,-0.273175 0.336902,-0.572033 0.481431,-0.871333 0.230751,-0.403517 0.491905,-0.787979 0.772702,-1.158461 0.353407,-0.465564 0.724913,-0.930564 0.956358,-1.471805 0.02215,-0.08118 0.05144,-0.160741 0.06645,-0.243537 0.09739,-0.537098 -0.09243,-1.072268 -0.179178,-1.595515 -0.06032,-0.351488 -0.121018,-0.653717 -0.144476,-1.012161 -0.04549,-0.695055 0.07296,-1.376778 0.17965,-2.06052 0.123319,-1.057729 0.186015,-2.121441 0.304577,-3.179803 0,0 -1.221843,0.614043 -1.221843,0.614043 z" />
    <path
       style="fill:#000000;fill-opacity:1;stroke:#000000;stroke-width:0.665001;stroke-miterlimit:4;stroke-dasharray:none"
       id="path1301"
       d="m 80.578959,26.603446 c 0.442322,-0.280627 0.872553,-0.58819 1.197771,-1.005477 0.17802,-0.228419 0.411081,-0.629586 0.556035,-0.867858 0.382278,-0.635591 0.807718,-1.248187 1.155304,-1.904465 0.174355,-0.3292 0.222347,-0.471148 0.358642,-0.808048 0.294304,-0.674476 0.349269,-1.409766 0.448456,-2.129952 0.105741,-0.647016 0.197818,-1.299126 0.35534,-1.936372 0.04637,-0.187604 0.163754,-0.572792 0.221557,-0.766118 0.207635,-0.634172 0.432967,-1.265196 0.714248,-1.870823 0.156422,-0.413413 0.32185,-0.825477 0.434732,-1.253396 0.126301,-0.42358 0.233598,-0.85469 0.329382,-1.286434 0.08993,-0.371435 0.208346,-0.735275 0.31028,-1.103456 0.06425,-0.285923 0.13508,-0.577086 0.25173,-0.846753 0.03162,-0.07997 0.06538,-0.176307 0.147828,-0.219894 0.02477,-0.01309 0.104253,-0.0392 0.08037,-0.02456 -1.065237,0.652733 -1.506554,0.730652 -0.945052,0.611427 0.266393,-0.02233 0.54719,-0.01065 0.768106,0.153279 0.02455,0.03221 0.05409,0.06117 0.07363,0.09664 0.193802,0.351794 0.161788,0.988386 0.152641,1.373136 -0.02426,0.880756 -0.160361,1.753001 -0.291682,2.622716 -0.138051,0.786272 -0.260165,1.575468 -0.36545,2.366802 -0.104712,0.769893 -0.343361,1.510023 -0.510831,2.266506 -0.13997,0.5822 -0.216054,1.176454 -0.296868,1.768903 -0.01791,0.475454 -0.03193,0.953913 0.0062,1.42869 0.05889,0.399981 0.120438,0.801414 0.262316,1.181396 0.128251,0.304621 0.345143,0.549379 0.580022,0.776065 0.209269,0.176042 0.362249,0.395348 0.505629,0.624254 0.09582,0.182259 0.21926,0.34688 0.341784,0.51154 0,0 1.173974,-0.693122 1.173974,-0.693122 v 0 C 88.480028,25.500525 88.372369,25.329918 88.274857,25.151586 88.11947,24.91723 87.960239,24.687692 87.742653,24.504144 87.517099,24.297421 87.320495,24.063355 87.19522,23.781376 87.055004,23.41459 86.98839,23.026089 86.945808,22.636719 c -0.03784,-0.464472 -0.03707,-0.934037 -0.0013,-1.398508 0.07702,-0.58576 0.142936,-1.173966 0.282641,-1.749241 0.168058,-0.7585 0.402002,-1.502725 0.50292,-2.275304 0.105918,-0.789108 0.228288,-1.575827 0.358502,-2.361279 0.127254,-0.876279 0.259985,-1.754115 0.291193,-2.640337 0.01307,-0.43899 0.05595,-1.068009 -0.15585,-1.472371 -0.02429,-0.04635 -0.05973,-0.08593 -0.08959,-0.128899 -0.03483,-0.0305 -0.06593,-0.06588 -0.104497,-0.0915 -0.212595,-0.141215 -0.487624,-0.142355 -0.7317,-0.152982 -0.657981,0.04805 -1.414026,0.404576 -1.63934,1.04016 -0.09398,0.28092 -0.175103,0.566175 -0.240038,0.855244 -0.10369,0.36665 -0.207078,0.733697 -0.296301,1.104125 -0.101182,0.431314 -0.204695,0.862841 -0.33963,1.285068 -0.117374,0.417885 -0.266549,0.826687 -0.430659,1.22835 -0.262372,0.613594 -0.482966,1.244933 -0.688343,1.879618 -0.244488,0.892668 -0.415459,1.800576 -0.560136,2.71463 -0.10567,0.710772 -0.186418,1.432669 -0.464892,2.102113 -0.145872,0.360346 -0.163761,0.429341 -0.351946,0.7853 -0.345228,0.653006 -0.759182,1.267772 -1.147223,1.895185 -0.18048,0.27956 -0.370879,0.596654 -0.587163,0.854055 -0.34671,0.412616 -0.797687,0.711966 -1.253953,0.988908 0,0 1.280359,-0.49561 1.280359,-0.49561 z" />
    <path
       style="fill:#000000;fill-opacity:1;stroke:#000000;stroke-width:0.665001;stroke-miterlimit:4;stroke-dasharray:none"
       id="path1303"
       d="m 83.144975,21.268692 c 0.317855,0.0069 0.62901,-0.06093 0.941234,-0.109148 0.33268,-0.02271 0.656164,-0.07702 0.977975,-0.161855 0.200146,-0.04451 0.09894,-0.0253 0.303646,-0.05743 0,0 1.101439,-0.82359 1.101439,-0.82359 v 0 c -0.208563,0.02499 -0.105188,0.01117 -0.310147,0.04134 -0.322625,0.08589 -0.639739,0.178929 -0.977583,0.182922 -0.304572,0.03566 -0.604702,0.116669 -0.912595,0.111155 0,0 -1.123969,0.816611 -1.123969,0.816611 z" />
    <path
       style="fill:#000000;fill-opacity:1;stroke:#000000;stroke-width:0.665001;stroke-miterlimit:4;stroke-dasharray:none"
       id="path1313"
       d="m 89.40153,10.798153 c 0.5222,0.172432 1.058815,0.381561 1.504611,0.711831 0.08168,0.06052 0.156247,0.130097 0.234371,0.195146 0.487539,0.510639 0.592664,1.226431 0.752202,1.887184 0.278628,0.981404 0.368771,1.999287 0.492112,3.00788 0.122222,0.750815 0.175858,1.509658 0.260614,2.264716 0.05179,0.472762 0.143442,0.94021 0.22668,1.408225 0.10501,0.460652 0.162351,0.930201 0.26611,1.390865 0.124195,0.40355 0.196283,0.819534 0.265951,1.235121 0.05485,0.345545 0.076,0.695018 0.08496,1.044381 0.0081,0.28509 0.02714,0.574392 0.11807,0.846106 0.09267,0.281823 0.273455,0.520013 0.400695,0.786506 0.08866,0.212936 0.126905,0.441177 0.197398,0.660294 0.10246,0.182827 0.218406,0.37001 0.358974,0.527365 0.40442,-0.259442 0.838414,-0.47774 1.213262,-0.778331 0.04636,-0.03717 -0.01365,-0.118071 -0.02204,-0.176896 -0.01127,-0.07887 -0.02537,-0.157323 -0.03693,-0.236153 -0.04365,-0.297327 -0.07505,-0.594887 -0.103174,-0.894017 -0.04462,-0.67894 -0.08789,-1.36106 -0.04361,-2.04079 0.03809,-0.499887 0.201361,-0.976744 0.332621,-1.457002 0.199316,-0.729256 7.93e-4,-0.0583 0.212661,-0.755708 0.196152,-0.631856 0.410874,-1.257868 0.607896,-1.889307 0.162034,-0.494321 0.346102,-0.982728 0.554919,-1.45946 0.180237,-0.366451 0.339505,-0.741814 0.540501,-1.097799 0.199038,-0.301937 0.311486,-0.645668 0.468834,-0.968506 0.14605,-0.316088 0.34068,-0.606988 0.486561,-0.922678 0.132667,-0.248392 0.290078,-0.482125 0.431271,-0.726393 0.172608,-0.255948 0.327122,-0.523007 0.499684,-0.779272 0.282022,-0.400727 0.628426,-0.74771 0.982796,-1.083573 0.12688,-0.08641 0.22489,-0.20664 0.34444,-0.301438 0.0422,-0.03348 0.28252,-0.191557 0.33267,-0.221611 0.0498,-0.02986 0.20279,-0.113451 0.15277,-0.0839 -0.34608,0.204488 -0.69402,0.405824 -1.04103,0.608736 0.14732,-0.0732 0.0763,-0.03775 0.21303,-0.106272 0,0 1.08134,-0.862685 1.08134,-0.862685 v 0 c -0.14298,0.06685 -0.0699,0.03026 -0.2187,0.11064 -0.75549,0.426044 -1.50478,0.765165 -2.118075,1.372868 -0.355544,0.346639 -0.705366,0.703461 -0.984403,1.116498 -0.17203,0.261284 -0.339728,0.525572 -0.504926,0.791148 -0.141256,0.244743 -0.304787,0.477251 -0.424066,0.734072 -0.157213,0.308803 -0.333111,0.607928 -0.481052,0.921536 -0.149612,0.324795 -0.279665,0.658499 -0.472652,0.961617 -0.190431,0.360823 -0.35202,0.734998 -0.524431,1.104581 -0.202586,0.480479 -0.387016,0.969841 -0.540713,1.468163 -0.197403,0.628463 -0.401928,1.254603 -0.59364,1.8849 -0.248642,0.863 0.03808,-0.141983 -0.208688,0.755232 -0.134747,0.489918 -0.297918,0.977963 -0.330295,1.488816 -0.03351,0.686139 0.0063,1.374276 0.0505,2.059296 0.02561,0.302738 0.06,0.603657 0.09217,0.905717 0.0083,0.07824 0.01833,0.156353 0.02365,0.234852 0.0039,0.05687 -0.05005,0.189206 0.0039,0.170947 0.423434,-0.143195 0.80572,-0.387328 1.208579,-0.580993 -0.113157,-0.07672 -0.264435,-0.335692 -0.331795,-0.458641 -0.06687,-0.226649 -0.113414,-0.460618 -0.213151,-0.676024 -0.128799,-0.257925 -0.298802,-0.495652 -0.387207,-0.772037 -0.08252,-0.260844 -0.09872,-0.537948 -0.103304,-0.810181 -0.01569,-0.353497 -0.04784,-0.705881 -0.10395,-1.055473 -0.07396,-0.417073 -0.144928,-0.834837 -0.269253,-1.240782 -0.100451,-0.457948 -0.172897,-0.921909 -0.271677,-1.380328 -0.07702,-0.466931 -0.16003,-0.933148 -0.223567,-1.402085 -0.09512,-0.748972 -0.184767,-1.498594 -0.299461,-2.244986 -0.127542,-1.014562 -0.226269,-2.036245 -0.4817,-3.029279 -0.156438,-0.693955 -0.27712,-1.431445 -0.781423,-1.969987 -0.08166,-0.06883 -0.159383,-0.142623 -0.244991,-0.206476 -0.449975,-0.335625 -0.992217,-0.523709 -1.491155,-0.770884 0,0 -1.145799,0.784706 -1.145799,0.784706 z" />
    <path
       style="fill:#000000;fill-opacity:1;stroke:#000000;stroke-width:0.665001;stroke-miterlimit:4;stroke-dasharray:none"
       id="path1315"
       d="m 99.213783,26.442792 c 0.03634,-0.600031 0.187978,-1.189129 0.334224,-1.770372 0.161954,-0.655662 0.384939,-1.292433 0.614443,-1.926691 0.24419,-0.585858 0.51257,-1.160962 0.75573,-1.747188 0.26371,-0.643128 0.5783,-1.262977 0.86297,-1.896931 0.22733,-0.494758 0.51038,-0.960197 0.76317,-1.442108 0.25153,-0.440618 0.49744,-0.884987 0.72826,-1.336872 0.24174,-0.540974 0.52077,-1.063856 0.75126,-1.609928 0.18777,-0.506091 0.40684,-0.998608 0.62567,-1.491655 0.17439,-0.359988 0.33696,-0.726512 0.53265,-1.075536 0.10329,-0.186888 0.21522,-0.366879 0.30063,-0.563457 0.15297,-0.225617 0.30464,-0.451489 0.45034,-0.682196 0.16607,-0.194185 0.26396,-0.436611 0.42959,-0.629824 0.055,-0.05833 0.0653,-0.139647 0.12365,-0.19537 0.0155,-0.0148 0.0712,-0.04766 0.0527,-0.03673 -1.16413,0.690661 -1.50186,0.822781 -1.01565,0.624881 0.15139,-0.02715 0.35645,-0.10356 0.50153,-0.01216 0.0302,0.01902 0.0519,0.049 0.0779,0.0735 0.24592,0.35729 0.30579,0.788995 0.35547,1.209392 0.0455,0.480012 0.0445,0.962699 0.047,1.444374 0.003,0.488166 -2.4e-4,0.976306 -0.004,1.464451 -0.003,0.406878 -0.003,0.813772 -2.7e-4,1.220649 0.003,0.54644 0.004,1.092888 0.006,1.639333 -0.0198,0.723901 -0.0551,1.446985 -0.0986,2.169776 -0.0705,0.753427 -0.12689,1.50788 -0.15704,2.264014 -0.0168,0.6541 -0.0145,1.307774 -0.0564,1.960905 -0.006,0.458186 -0.0939,0.919968 -0.0407,1.376753 0.0278,0.07234 0.0476,0.148297 0.0834,0.217019 0.1897,0.364061 0.56769,0.730453 0.83781,1.045718 0.15871,0.212095 0.36095,0.349237 0.59354,0.466418 0,0 1.14306,-0.754387 1.14306,-0.754387 v 0 c -0.22239,-0.102282 -0.4153,-0.220565 -0.57058,-0.416122 -0.26644,-0.29688 -0.63702,-0.643675 -0.80971,-1.002653 -0.0289,-0.06018 -0.0415,-0.126928 -0.0623,-0.190392 -0.0363,-0.44897 0.0212,-0.900654 0.0344,-1.349767 0.0315,-0.652275 0.0224,-1.304982 0.0448,-1.957604 0.0294,-0.754216 0.0807,-1.506869 0.15254,-2.258293 0.0473,-0.727373 0.0807,-1.455426 0.10781,-2.183832 0.002,-0.548626 0.003,-1.097256 0.006,-1.645877 0.003,-0.40699 0.003,-0.813995 0.002,-1.220994 -0.002,-0.487889 -0.002,-0.975755 8e-4,-1.463645 -10e-4,-0.486103 -0.008,-0.972861 -0.0576,-1.456925 -0.057,-0.450602 -0.12686,-0.906927 -0.37896,-1.296114 -0.231,-0.2641174 -0.33726,-0.227784 -0.6599,-0.1881547 -0.62816,0.1058806 -1.21552,0.4644547 -1.53301,1.0013367 -0.13674,0.210605 -0.26346,0.427563 -0.41005,0.631722 -0.15357,0.234432 -0.3263,0.458257 -0.45758,0.705998 -0.0932,0.187141 -0.19956,0.366526 -0.29589,0.552026 -0.18412,0.351618 -0.33659,0.719535 -0.50907,1.076894 -0.21727,0.493024 -0.42854,0.987974 -0.62139,1.491175 -0.23712,0.540308 -0.5024,1.067306 -0.75463,1.600625 -0.2383,0.450567 -0.49005,0.89389 -0.73638,1.340101 -0.25132,0.481118 -0.53105,0.947734 -0.74922,1.445439 -0.27887,0.637388 -0.591225,1.258948 -0.862267,1.89981 -0.246266,0.585215 -0.509455,1.163191 -0.748641,1.751413 -0.227574,0.636977 -0.445929,1.277238 -0.602615,1.936157 -0.147566,0.600568 -0.300353,1.205555 -0.363186,1.82174 0,0 1.236112,-0.629832 1.236112,-0.629832 z" />
    <path
       style="fill:#000000;fill-opacity:1;stroke:#000000;stroke-width:0.665001;stroke-miterlimit:4;stroke-dasharray:none"
       id="path1317"
       d="m 100.57389,20.462377 c 0.55966,0.247763 1.12344,0.488865 1.69878,0.698173 0.32845,0.12349 0.67186,0.180409 1.02064,0.196122 0.41218,0.0042 0.82442,0.0032 1.23662,0.0041 0.28688,0.01785 0.5565,-0.03951 0.81378,-0.163036 0.78887,-0.308545 1.13629,-0.611811 1.65089,-1.08583 0,0 -1.2753,0.522783 -1.2753,0.522783 v 0 c -0.37983,0.356139 -1.19734,0.868612 0.69763,-0.301416 -0.23809,0.145567 -0.49226,0.234391 -0.77604,0.219437 -0.41105,0.0052 -0.82222,0.01128 -1.23324,9.79e-4 -0.34239,-0.01123 -0.68343,-0.04363 -1.01037,-0.154354 -0.57194,-0.187512 -1.13549,-0.411744 -1.66924,-0.690459 0,0 -1.15415,0.753505 -1.15415,0.753505 z" />
    <path
       style="fill:#000000;fill-opacity:1;stroke:#000000;stroke-width:0.665001;stroke-miterlimit:4;stroke-dasharray:none"
       id="path1319"
       d="m 120.58643,10.98476 c -0.52713,-0.254723 -1.08677,-0.418972 -1.64965,-0.572321 -0.59201,-0.180218 -1.19822,-0.2735 -1.81405,-0.311125 -0.62394,-0.04281 -1.22085,0.10863 -1.80209,0.318649 -0.76467,0.327434 -1.47797,0.77425 -2.1811,1.211878 -0.13634,0.08486 -0.34196,0.290918 -0.45619,0.399106 -0.44246,0.41512 -0.8116,0.894456 -1.17786,1.375347 -0.35633,0.495823 -0.68307,1.019701 -0.93889,1.574825 -0.27311,0.575075 -0.49238,1.171808 -0.66291,1.784625 -0.17524,0.612194 -0.24759,1.246839 -0.34578,1.874304 -0.0756,0.550829 -0.13522,1.104067 -0.18982,1.657404 -0.0338,0.508327 -0.0681,1.017773 -0.0446,1.527096 0.0241,0.445196 0.0735,0.892079 0.19064,1.322843 0.10752,0.40406 0.23486,0.801776 0.40534,1.183689 0.13451,0.257625 0.23471,0.543163 0.40684,0.780178 0.15697,0.216144 0.24079,0.268818 0.44927,0.456167 0.61355,0.470979 1.20612,0.973813 1.8478,1.406554 0.54929,0.363509 1.13239,0.657583 1.74197,0.903256 0.36717,0.164314 0.74707,0.251905 1.14765,0.258405 0.29274,5.3e-4 0.55808,-0.102481 0.8226,-0.214915 0.56013,-0.262372 1.09941,-0.580348 1.61812,-0.911387 0.0221,-0.01413 0.22658,-0.308702 0.23772,-0.324501 0.20877,-0.323608 0.39354,-0.654422 0.52972,-1.014559 0.0143,-0.0443 0.0286,-0.0886 0.0429,-0.132905 0,0 -1.24828,0.585925 -1.24828,0.585925 v 0 c -0.0147,0.04217 -0.0294,0.08433 -0.0441,0.1265 -0.13739,0.345923 -0.31905,0.669032 -0.53307,0.973977 -0.0469,0.0574 -0.0899,0.118264 -0.1408,0.172202 -0.0397,0.04214 -0.18152,0.142015 -0.1302,0.115122 2.02186,-1.059574 1.19004,-0.690514 0.74872,-0.443711 -0.25724,0.108506 -0.50585,0.23745 -0.79006,0.257664 -0.41014,0.01529 -0.75458,-0.03996 -1.13743,-0.20122 -0.60697,-0.234543 -1.19366,-0.507818 -1.73474,-0.873964 -0.64016,-0.420162 -1.24404,-0.905717 -1.838,-1.387796 -0.0824,-0.07794 -0.16957,-0.151179 -0.24728,-0.233829 -0.25722,-0.273594 -0.39824,-0.633407 -0.55866,-0.966411 -0.15852,-0.378612 -0.29585,-0.765765 -0.39709,-1.163947 -0.10294,-0.423015 -0.15953,-0.858835 -0.18228,-1.293383 -0.009,-0.504244 0.009,-1.009148 0.0529,-1.511619 0.0526,-0.549932 0.1092,-1.099992 0.18593,-1.647078 0.0941,-0.62283 0.17014,-1.251456 0.34931,-1.857313 0.17678,-0.606096 0.40246,-1.195805 0.67501,-1.765667 0.26649,-0.545295 0.59082,-1.064334 0.95366,-1.550703 0.36341,-0.477569 0.74052,-0.945098 1.18438,-1.351802 0.0763,-0.06733 0.14995,-0.137835 0.22896,-0.201994 0.38589,-0.313377 0.79263,-0.482802 -0.6754,0.335972 -0.0813,0.04535 0.16062,-0.09425 0.24228,-0.138972 0.22671,-0.124163 0.29747,-0.153531 0.53527,-0.266727 0.56415,-0.224443 1.15096,-0.381281 1.76375,-0.360696 0.61146,0.03371 1.2178,0.109773 1.80807,0.280883 0.5467,0.151356 1.10011,0.304895 1.59918,0.581755 0,0 1.15243,-0.765781 1.15243,-0.765781 z" />
    <text
       xml:space="preserve"
       id="text1331"
       style="font-style:normal;font-weight:normal;font-size:10.5833px;line-height:1.25;font-family:sans-serif;white-space:pre;shape-inside:url(#rect1333);fill:#000000;fill-opacity:1;stroke:none;"><tspan
         style="visibility:hidden"
         x="48.816406"
         y="53.549287"><tspan
           dx="0 4.8575692 6.7075801 4.351141 2.9403801 5.5138588 4.1496029 2.9403801 5.8187466 5.9427719 6.4853706">Turistička </tspan></tspan></text>
    <text
       xml:space="preserve"
       style="font-style:normal;font-weight:normal;font-size:9.07923px;line-height:1.25;font-family:sans-serif;fill:#000000;fill-opacity:1;stroke:none;stroke-width:0.226981"
       x="51.726692"
       y="36.63966"
       id="text1339"
       transform="scale(0.90266663,1.1078287)"><tspan
         sodipodi:role="line"
         id="tspan1337"
         x="51.726692"
         y="36.63966"
         style="font-style:normal;font-variant:normal;font-weight:bold;font-stretch:normal;font-size:9.07923px;font-family:'Open Sans';-inkscape-font-specification:'Open Sans, Normal';font-variant-ligatures:normal;font-variant-caps:normal;font-variant-numeric:normal;font-variant-east-asian:normal;stroke-width:0.226981">Turistička agencija</tspan></text>
  </g>
</svg>
